<?xml version="1.0" standalone="no"?>
<svg xmlns:xlink="http://www.w3.org/1999/xlink" id="wave" style="transform:rotate(180deg); transition: 0.3s" viewBox="0 0 1440 190" version="1.1" xmlns="http://www.w3.org/2000/svg"><defs><linearGradient id="sw-gradient-0" x1="0" x2="0" y1="1" y2="0"><stop stop-color="rgba(204, 180, 233, 1)" offset="0%"/><stop stop-color="rgba(155, 132, 183, 1)" offset="100%"/></linearGradient></defs><path style="transform:translate(0, 0px); opacity:1" fill="url(#sw-gradient-0)" d="M0,0L12,0C24,0,48,0,72,3.2C96,6,120,13,144,22.2C168,32,192,44,216,57C240,70,264,82,288,85.5C312,89,336,82,360,79.2C384,76,408,76,432,63.3C456,51,480,25,504,12.7C528,0,552,0,576,6.3C600,13,624,25,648,38C672,51,696,63,720,60.2C744,57,768,38,792,25.3C816,13,840,6,864,25.3C888,44,912,89,936,107.7C960,127,984,120,1008,117.2C1032,114,1056,114,1080,104.5C1104,95,1128,76,1152,66.5C1176,57,1200,57,1224,63.3C1248,70,1272,82,1296,95C1320,108,1344,120,1368,110.8C1392,101,1416,70,1440,60.2C1464,51,1488,63,1512,79.2C1536,95,1560,114,1584,117.2C1608,120,1632,108,1656,114C1680,120,1704,146,1716,158.3L1728,171L1728,190L1716,190C1704,190,1680,190,1656,190C1632,190,1608,190,1584,190C1560,190,1536,190,1512,190C1488,190,1464,190,1440,190C1416,190,1392,190,1368,190C1344,190,1320,190,1296,190C1272,190,1248,190,1224,190C1200,190,1176,190,1152,190C1128,190,1104,190,1080,190C1056,190,1032,190,1008,190C984,190,960,190,936,190C912,190,888,190,864,190C840,190,816,190,792,190C768,190,744,190,720,190C696,190,672,190,648,190C624,190,600,190,576,190C552,190,528,190,504,190C480,190,456,190,432,190C408,190,384,190,360,190C336,190,312,190,288,190C264,190,240,190,216,190C192,190,168,190,144,190C120,190,96,190,72,190C48,190,24,190,12,190L0,190Z"/></svg>